<?xml version="1.0" encoding="UTF-8"?>
<svg width="387px" height="480px" viewBox="0 0 387 480" version="1.1" xmlns="http://www.w3.org/2000/svg" xmlns:xlink="http://www.w3.org/1999/xlink">
    <!-- Generator: Sketch 48.2 (47327) - http://www.bohemiancoding.com/sketch -->
    <title>hacker</title>
    <desc>Created with Sketch.</desc>
    <defs>
        <path d="M0.134815574,133.519651 L193.468279,181.475459 L386.77002,133.789869 C321.741332,3.44925764 311.661885,6.56471616 311.661885,6.56471616 L195.728422,139.011441 L76.2183811,0.0476855895 C55.8136475,3.00419214 0.134815574,133.519651 0.134815574,133.519651 Z" id="path-1"></path>
        <path d="M0.652653061,0.460438596 L0.652653061,29.1425877 C8.87846939,29.2584912 17.0804082,30.0547325 25.174898,31.5241667 C41.7459184,35.4934649 45.0728571,45.4087719 45.0728571,45.4087719 L0.652653061,142.466053 L0.652653061,180.928553 L117,48.6318421 L72.8822449,24.2762281 L56.9638776,24.2762281 L72.8822449,0.460438596 L0.652653061,0.460438596 Z" id="path-3"></path>
        <path d="M47.332053,0.460438596 L63.0936424,24.2762281 L47.332053,24.2762281 L0.0866887417,42.122193 L118.842384,180.912675 L118.842384,142.450175 L74.8754305,45.4087719 C74.8754305,45.4087719 78.1696026,35.4934649 94.5774172,31.5241667 C102.592185,30.0547325 110.712556,29.2584912 118.858146,29.1425877 L118.858146,0.460438596 L47.332053,0.460438596 Z" id="path-5"></path>
        <path d="M49.6373016,0.51183871 C20.1960317,0.514219355 0,15.2051806 0,15.2051806 L49.6825397,122.920645 L99.3722222,15.2051806 C81.3936508,4.18517419 64.3642857,0.51183871 49.6420635,0.51183871 C49.6404762,0.51183871 49.6388889,0.51183871 49.6373016,0.51183871 Z" id="path-7"></path>
        <path d="M3.96103896,0 C3.96103896,0 -0.491168831,19.0770588 0.99025974,24.1176471 C2.47168831,29.1582353 30.6742857,58.2521569 60.8494805,24.1176471 L56.3972727,0 L3.96103896,0 Z" id="path-9"></path>
        <path d="M33.5619718,92.2687179 C142.078221,93.2384615 166.898211,64.48 168.357324,41.5717949 C169.81723,18.6635897 117.712864,0.0715384615 117.712864,0.0715384615 C117.712864,0.0715384615 -74.9550704,91.2989744 33.5619718,92.2687179 Z" id="path-11"></path>
        <path d="M2.49879808,47.4307949 C17.5780529,83.5330769 79.851274,89.3515385 110.502404,92.2758718 C141.153534,95.2017949 164.825481,50.6341282 164.825481,50.6341282 L53.2672356,0.127179487 C53.150625,0.0906153846 52.953101,0.0723333333 52.6810096,0.0723333333 C45.5796635,0.0723333333 -12.0251683,12.6583333 2.49879808,47.4307949 Z" id="path-13"></path>
        <path d="M42.5921717,0.401223022 C24.9328788,0.402805755 0.711,12.2741007 0.711,12.2741007 L25.1762626,83.623741 L49.650303,109.834604 L78.0344444,81.6848921 C81.0029293,18.5892086 69.2239495,10.3344604 53.0728384,2.43028777 C50.1330808,0.990791367 46.530202,0.401223022 42.5993535,0.401223022 C42.5969596,0.401223022 42.5945657,0.401223022 42.5921717,0.401223022 Z" id="path-15"></path>
        <path d="M19.6855714,4.53963235 C-0.720909091,19.9759559 0.743883117,83.3419853 0.743883117,83.3419853 L45.441039,106.827699 L110.061429,102.531963 L121.366234,89.9901471 C118.094416,32.6200515 72.6375325,7.91406618 54.1782987,2.12426471 C49.3648442,0.613676471 44.7161688,0.0558602941 40.4731039,0.0558602941 C28.4481818,0.0558602941 19.6855714,4.53963235 19.6855714,4.53963235 Z" id="path-17"></path>
        <path d="M125.436771,9.90121311 C105.571844,19.1340984 66.3481117,28.3701967 0.737765363,4.77147541 C0.737765363,4.77147541 -0.721899441,25.7932787 9.01105028,33.1842459 C18.7455866,40.5736066 55.7211173,53.8759016 93.6716089,46.4849344 C131.623687,39.096377 137.462346,33.5457213 139.405922,26.7090164 C141.349497,19.8731148 141.841341,2.61065574 141.841341,0.200819672 C141.841341,0.135754098 141.814369,0.105229508 141.758838,0.105229508 C141.063911,0.105229508 135.972536,5.00281967 125.436771,9.90121311 Z" id="path-19"></path>
        <polygon id="path-21" points="0.134432624 0.4785625 222.739043 0.4785625 222.739043 12.666875 0.134432624 12.666875"></polygon>
        <polygon id="path-23" points="0.666420664 0.532564103 214.873856 0.532564103 214.873856 124 0.666420664 124"></polygon>
        <polygon id="path-25" points="0.667058824 0.532564103 215.078824 124 215.610882 0.27025641"></polygon>
        <polygon id="path-27" points="0.667058824 0.57975 0.667058824 5.505 215.563235 5.505 215.610882 0.255"></polygon>
        <polygon id="path-29" points="0.425 0 14.8666667 0 14.8666667 7.736 0.425 7.736"></polygon>
        <polygon id="path-31" points="0.707368421 0 15.3010526 0 15.3010526 7.736 0.707368421 7.736"></polygon>
    </defs>
    <g id="Home-page" stroke="none" stroke-width="1" fill="none" fill-rule="evenodd" transform="translate(-1113.000000, -2304.000000)">
        <g id="hacker" transform="translate(1113.000000, 2304.000000)">
            <g id="Group-3" transform="translate(0.000000, 273.000000)">
                <mask id="mask-2" fill="white">
                    <use xlink:href="#path-1"></use>
                </mask>
                <g id="Clip-2"></g>
                <polygon id="Fill-1" fill="#1A1A1A" mask="url(#mask-2)" points="-3.83034836 185.449258 390.735184 185.449258 390.735184 -3.92611354 -3.83034836 -3.92611354"></polygon>
            </g>
            <g id="Group-6" transform="translate(195.000000, 231.000000)">
                <mask id="mask-4" fill="white">
                    <use xlink:href="#path-3"></use>
                </mask>
                <g id="Clip-5"></g>
                <polygon id="Fill-4" fill="#3C3C3C" mask="url(#mask-4)" points="-3.32693878 184.897851 120.979592 184.897851 120.979592 -3.50885965 -3.32693878 -3.50885965"></polygon>
            </g>
            <g id="Group-9" transform="translate(76.000000, 231.000000)">
                <mask id="mask-6" fill="white">
                    <use xlink:href="#path-5"></use>
                </mask>
                <g id="Clip-8"></g>
                <polygon id="Fill-7" fill="#474747" mask="url(#mask-6)" points="-3.85370861 184.881974 122.798543 184.881974 122.798543 -3.50885965 -3.85370861 -3.50885965"></polygon>
            </g>
            <g id="Group-12" transform="translate(146.000000, 256.000000)">
                <mask id="mask-8" fill="white">
                    <use xlink:href="#path-7"></use>
                </mask>
                <g id="Clip-11"></g>
                <polygon id="Fill-10" fill="#FEFEFE" mask="url(#mask-8)" points="-3.96825397 126.888387 103.34127 126.888387 103.34127 -3.45669677 -3.96825397 -3.45669677"></polygon>
            </g>
            <g id="Group-15" transform="translate(165.000000, 251.000000)">
                <mask id="mask-10" fill="white">
                    <use xlink:href="#path-9"></use>
                </mask>
                <g id="Clip-14"></g>
                <polygon id="Fill-13" fill="#DF9E75" mask="url(#mask-10)" points="-3.27261039 44.4914314 64.8105195 44.4914314 64.8105195 -4.01960784 -3.27261039 -4.01960784"></polygon>
            </g>
            <g id="Group-20" transform="translate(113.000000, 145.000000)">
                <path d="M1.00630588,1.435925 C1.00630588,1.435925 7.7031,109.109717 79.2038647,113.759967 C150.030424,118.367467 161.888982,0.744008333 161.247335,1.435925 C160.606482,2.12784167 1.00630588,1.435925 1.00630588,1.435925" id="Fill-16" fill="#FEC997"></path>
                <path d="M5.61472941,30.3084042 L80.2633765,45.8337792 L156.142112,30.7050292 C156.142112,30.7050292 163.817259,0.2923625 159.8832,0.2092375 C153.491347,0.0746541667 0.738847059,0.0944458333 0.738847059,0.0944458333 C0.738847059,0.0944458333 2.70825882,21.3150708 5.61472941,30.3084042" id="Fill-18" fill="#C28F69"></path>
            </g>
            <g id="Group-23" transform="translate(149.000000, 73.000000)">
                <mask id="mask-12" fill="white">
                    <use xlink:href="#path-11"></use>
                </mask>
                <g id="Clip-22"></g>
                <polygon id="Fill-21" fill="#E4F2FF" mask="url(#mask-12)" points="-3.55296714 96.2669231 172.35461 96.2669231 172.35461 -3.90282051 -3.55296714 -3.90282051"></polygon>
            </g>
            <g id="Group-26" transform="translate(72.000000, 73.000000)">
                <mask id="mask-14" fill="white">
                    <use xlink:href="#path-13"></use>
                </mask>
                <g id="Clip-25"></g>
                <polygon id="Fill-24" fill="#F0F9FD" mask="url(#mask-14)" points="-3.8053125 96.3885385 168.79262 96.3885385 168.79262 -3.90202564 -3.8053125 -3.90202564"></polygon>
            </g>
            <g id="Group-29" transform="translate(189.000000, 0.000000)">
                <mask id="mask-16" fill="white">
                    <use xlink:href="#path-15"></use>
                </mask>
                <g id="Clip-28"></g>
                <polygon id="Fill-27" fill="#E4F2FF" mask="url(#mask-16)" points="-3.27969697 113.790647 82.4839798 113.790647 82.4839798 -3.55640288 -3.27969697 -3.55640288"></polygon>
            </g>
            <g id="Group-32" transform="translate(125.000000, 3.000000)">
                <mask id="mask-18" fill="white">
                    <use xlink:href="#path-17"></use>
                </mask>
                <g id="Clip-31"></g>
                <polygon id="Fill-30" fill="#F0F9FD" mask="url(#mask-18)" points="-3.23933766 110.760735 125.327273 110.760735 125.327273 -3.87796324 -3.23933766 -3.87796324"></polygon>
            </g>
            <g id="Group-35" transform="translate(125.000000, 82.000000)">
                <mask id="mask-20" fill="white">
                    <use xlink:href="#path-19"></use>
                </mask>
                <g id="Clip-34"></g>
                <polygon id="Fill-33" fill="#000000" mask="url(#mask-20)" points="-3.3064581 52.6677705 145.807821 52.6677705 145.807821 -3.91116393 -3.3064581 -3.91116393"></polygon>
            </g>
            <g id="Group-38" transform="translate(82.000000, 467.000000)">
                <mask id="mask-22" fill="white">
                    <use xlink:href="#path-21"></use>
                </mask>
                <g id="Clip-37"></g>
                <polygon id="Fill-36" fill="#5076ED" mask="url(#mask-22)" points="-3.81946809 16.729375 226.692943 16.729375 226.692943 -3.583125 -3.81946809 -3.583125"></polygon>
            </g>
            <g id="Group-41" transform="translate(87.000000, 346.000000)">
                <mask id="mask-24" fill="white">
                    <use xlink:href="#path-23"></use>
                </mask>
                <g id="Clip-40"></g>
                <polygon id="Fill-39" fill="#D6EEFB" mask="url(#mask-24)" points="-3.300369 127.974359 218.839852 127.974359 218.839852 -3.44179487 -3.300369 -3.44179487"></polygon>
            </g>
            <g id="Group-44" transform="translate(87.000000, 346.000000)">
                <mask id="mask-26" fill="white">
                    <use xlink:href="#path-25"></use>
                </mask>
                <g id="Clip-43"></g>
                <polygon id="Fill-42" fill="#F0F9FD" mask="url(#mask-26)" points="-3.30352941 127.974359 219.581471 127.974359 219.581471 -3.70410256 -3.30352941 -3.70410256"></polygon>
            </g>
            <g id="Group-47" transform="translate(87.000000, 346.000000)">
                <mask id="mask-28" fill="white">
                    <use xlink:href="#path-27"></use>
                </mask>
                <g id="Clip-46"></g>
                <polygon id="Fill-45" fill="#A5DFFF" mask="url(#mask-28)" points="-3.30352941 9.255 219.581471 9.255 219.581471 -3.495 -3.30352941 -3.495"></polygon>
            </g>
            <g id="Group-50" transform="translate(287.000000, 469.000000)">
                <mask id="mask-30" fill="white">
                    <use xlink:href="#path-29"></use>
                </mask>
                <g id="Clip-49"></g>
                <polygon id="Fill-48" fill="#2B42AD" mask="url(#mask-30)" points="-3.74166667 11.736 19.0333333 11.736 19.0333333 -4 -3.74166667 -4"></polygon>
            </g>
            <g id="Group-53" transform="translate(87.000000, 469.000000)">
                <mask id="mask-32" fill="white">
                    <use xlink:href="#path-31"></use>
                </mask>
                <g id="Clip-52"></g>
                <polygon id="Fill-51" fill="#2B42AD" mask="url(#mask-32)" points="-3.50315789 11.736 19.5115789 11.736 19.5115789 -4 -3.50315789 -4"></polygon>
            </g>
        </g>
    </g>
</svg>