<?xml version="1.0" encoding="UTF-8"?>
<svg width="155px" height="144px" viewBox="0 0 155 144" version="1.1" xmlns="http://www.w3.org/2000/svg" xmlns:xlink="http://www.w3.org/1999/xlink">
    <!-- Generator: Sketch 48.2 (47327) - http://www.bohemiancoding.com/sketch -->
    <title>Responding</title>
    <desc>Created with Sketch.</desc>
    <defs>
        <linearGradient x1="100%" y1="50%" x2="0%" y2="50%" id="linearGradient-1">
            <stop stop-color="#5AD9FD" offset="0%"></stop>
            <stop stop-color="#37ADF4" offset="100%"></stop>
        </linearGradient>
    </defs>
    <g id="Home-page" stroke="none" stroke-width="1" fill="none" fill-rule="evenodd" transform="translate(-290.000000, -1705.000000)">
        <g id="Responding" transform="translate(290.000000, 1705.000000)">
            <path d="M145.935673,0 C150.941762,9.07406275e-16 155,4.00440969 155,8.94409938 L155,135.055901 C155,139.99559 150.941762,144 145.935673,144 L9.06432749,144 C4.05823765,144 0,139.99559 0,135.055901 L0,8.94409938 C0,4.00440969 4.05823765,-9.07406275e-16 9.06432749,0 L145.935673,0 Z" id="Rectangle-13-Copy" fill="url(#linearGradient-1)"></path>
            <g id="Virus_Logo" transform="translate(27.000000, 21.000000)" fill-rule="nonzero">
                <path d="M62.26,62.59 C62.01,62.99 61.75,63.37 61.48,63.75 C60.6293996,64.9504409 59.6721829,66.0716563 58.62,67.1 C57.598335,68.0978549 56.4832181,68.9953063 55.29,69.78 C50.9,72.68 45.88,73.68 41.56,72.31 L55.56,50.21 C56.15842,49.2650325 56.2072486,48.0725933 55.6880927,47.0818627 C55.1689368,46.0911321 54.1606684,45.4526257 53.0430926,45.4068626 C51.9255168,45.3610996 50.8684198,45.9150324 50.27,46.86 L36.27,68.96 C31.33,63.65 31.11,54.12 36.2,46.09 C39.96,40.15 45.7,36.49 51.2,35.87 C57.3406788,35.0104974 63.201249,38.7214866 65.05,44.64 C65.3606642,45.5413484 65.5915516,46.4682441 65.74,47.41 C65.9508267,48.7691934 66.014528,50.1471527 65.93,51.52 C65.7336101,54.4544956 64.9730518,57.3235662 63.69,59.97 C63.2685504,60.8723572 62.7909471,61.7474067 62.26,62.59 Z" id="Shape" fill="#D6F1FB"></path>
                <path d="M56.26,49.08 L42.26,71.18 C40.2372036,70.5383724 38.4148208,69.3843115 36.97,67.83 L50.97,45.73 C51.5684198,44.7850324 52.6255168,44.2310996 53.7430926,44.2768626 C54.8606684,44.3226257 55.8689368,44.9611321 56.3880927,45.9518627 C56.9072486,46.9425933 56.85842,48.1350325 56.26,49.08 Z" id="Shape" fill="#5589A6"></path>
                <path d="M66.28,43.13 C65.9351196,43.6744577 65.5291529,44.1777222 65.07,44.63 C63.221249,38.7114866 57.3606788,35.0004974 51.22,35.86 C52.0050979,33.6056917 53.709128,31.7899214 55.9090993,30.863417 C58.1090707,29.9369126 60.5987046,29.9865472 62.76,31 C63.0765509,31.1515241 63.383765,31.3218276 63.68,31.51 C63.968475,31.6931354 64.2456447,31.893499 64.51,32.11 C67.8037201,34.8061254 68.563746,39.5380384 66.28,43.13 Z" id="Shape" fill="#5589A6"></path>
                <path d="M68.47,32.55 L66.83,35.13 C66.2963843,33.9656665 65.5026795,32.9393241 64.51,32.13 L65.45,30.65 C65.7031224,30.248012 66.1056549,29.9631268 66.5689396,29.8580906 C67.0322243,29.7530544 67.518261,29.8364826 67.92,30.09 C68.7427307,30.6233462 68.9872607,31.7170622 68.47,32.55 Z" id="Shape" fill="#2F4C68"></path>
                <path d="M63.69,29.52 L62.76,31 C61.59436,30.4511393 60.3181985,30.1774317 59.03,30.2 L60.67,27.6 C60.9231224,27.198012 61.3256549,26.9131268 61.7889396,26.8080906 C62.2522243,26.7030544 62.738261,26.7864826 63.14,27.04 C63.5400649,27.2932195 63.821233,27.6969481 63.92,28.16 C64.0292301,28.6258208 63.9463318,29.1160022 63.69,29.52 Z" id="Shape" fill="#2F4C68"></path>
                <path d="M83.71,40.07 L77.3,50.19 C76.955898,50.7870571 76.3286609,51.1649107 75.64,51.19 L65.96,51.55 C66.044528,50.1771527 65.9808267,48.7991934 65.77,47.44 L74.41,47.12 L80.24,37.91 C80.8946768,37.1049499 82.045944,36.9124985 82.9268622,37.460851 C83.8077804,38.0092035 84.1433394,39.1271722 83.71,40.07 Z" id="Shape" fill="#2F4C68"></path>
                <path d="M61.25,75.53 L54.84,85.65 C54.2133792,86.5632628 52.9767918,86.8175953 52.0406128,86.225758 C51.1044337,85.6339207 50.8037832,84.4077711 51.36,83.45 L57.19,74.25 L55.28,69.78 C56.4732181,68.9953063 57.588335,68.0978549 58.61,67.1 L61.4,73.62 C61.6780365,74.2407527 61.6215307,74.9602605 61.25,75.53 Z" id="Shape" fill="#2F4C68"></path>
                <path d="M80.29,61.29 L72.75,65.29 C72.3393449,65.5077589 71.8675839,65.5816916 71.41,65.5 L61.47,63.71 C61.74,63.33 62,62.95 62.25,62.55 C62.7843639,61.7076669 63.2653102,60.832612 63.69,59.93 L71.42,61.33 L78.33,57.63 C78.983796,57.2798797 79.7747155,57.3051512 80.4048266,57.696295 C81.0349377,58.0874388 81.4085116,58.7850309 81.3848266,59.5262951 C81.3611417,60.2675592 80.9437961,60.9398798 80.29,61.29 Z" id="Shape" fill="#2F4C68"></path>
                <path d="M47.4,17.08 L41,27.2 C40.6284693,27.7697395 40.5719635,28.4892473 40.85,29.11 L44.66,38.02 C45.8659156,37.3551231 47.1399278,36.8220496 48.46,36.43 L45.06,28.49 L50.89,19.28 C51.4975132,18.3162631 51.2087369,17.0425132 50.245,16.435 C49.2812631,15.8274868 48.0075132,16.1162631 47.4,17.08 Z" id="Shape" fill="#2F4C68"></path>
                <path d="M24.94,52.53 L18.53,62.65 C17.9737832,63.6077711 18.2744337,64.8339207 19.2106128,65.425758 C20.1467918,66.0175953 21.3833792,65.7632628 22.01,64.85 L27.84,55.65 L32.7,55.47 C32.8997763,54.0545912 33.2346381,52.6615661 33.7,51.31 L26.61,51.57 C25.9257472,51.5831944 25.2957504,51.9453483 24.94,52.53 Z" id="Shape" fill="#2F4C68"></path>
                <path d="M29.68,29.23 L29.25,37.77 C29.2280849,38.2335924 29.3618462,38.6911969 29.63,39.07 L35.5,47.29 C35.72,46.88 35.96,46.48 36.21,46.09 C36.7417461,45.2472563 37.3262455,44.4389772 37.96,43.67 L33.39,37.28 L33.78,29.46 C33.8861042,28.6913653 33.5513064,27.9283136 32.9138513,27.4859241 C32.2763962,27.0435347 31.4444351,26.9968637 30.7615013,27.3651825 C30.0785674,27.7335014 29.6605281,28.4543208 29.68,29.23 Z" id="Shape" fill="#2F4C68"></path>
                <path d="M39.4,69.84 C38.5078935,69.2798701 37.6912427,68.6077294 36.97,67.84 L36.26,68.96 C33.18,65.64 31.94,60.69 32.67,55.48 L27.84,55.66 L22.01,64.86 C21.3833792,65.7732628 20.1467918,66.0275953 19.2106128,65.435758 C18.2744337,64.8439207 17.9737832,63.6177711 18.53,62.66 L24.94,52.54 C25.284102,51.9429429 25.9113391,51.5650893 26.6,51.54 L33.67,51.28 C34.1506309,49.8944758 34.7564671,48.5556111 35.48,47.28 L29.63,39.09 C29.3618462,38.7111969 29.2280849,38.2535924 29.25,37.79 L29.68,29.25 C29.6827288,28.4907035 30.1029273,27.7944695 30.7734665,27.4382169 C31.4440057,27.0819644 32.2561551,27.1234611 32.8868917,27.5462022 C33.5176283,27.9689432 33.8646757,28.7043796 33.79,29.46 L33.4,37.28 L37.96,43.65 C39.8020233,41.3528483 42.0744581,39.4370738 44.65,38.01 L40.84,29.12 C40.5619635,28.4992473 40.6184693,27.7797395 40.99,27.21 L47.4,17.09 C48.0266208,16.1767372 49.2632082,15.9224047 50.1993872,16.514242 C51.1355663,17.1060793 51.4362168,18.3322289 50.88,19.29 L45,28.48 L48.4,36.41 C49.3114024,36.1382201 50.2450307,35.9474788 51.19,35.84 C51.403811,35.2334791 51.6856057,34.6531162 52.03,34.11 C53.5495347,31.7028546 56.1836149,30.2277697 59.03,30.19 L60.67,27.59 C60.9231224,27.188012 61.3256549,26.9031268 61.7889396,26.7980906 C62.2522243,26.6930544 62.738261,26.7764826 63.14,27.03 C63.5438521,27.2812503 63.8288211,27.685257 63.93,28.15 C64.0364326,28.6126657 63.9536305,29.0986784 63.7,29.5 L62.76,31 C63.0765509,31.1515241 63.383765,31.3218276 63.68,31.51 L39.4,69.84 Z" id="Shape" fill="#B3B3B3" opacity="0.54" style="mix-blend-mode: multiply;"></path>
                <path d="M97.47,47.3 L91.65,47.3 C89.6998504,28.0253745 74.4551596,12.7848638 55.18,10.84 L55.18,5 C55.2543515,3.50324328 54.4981455,2.08723988 53.2128919,1.31657002 C51.9276383,0.545900165 50.3223617,0.545900165 49.0371081,1.31657002 C47.7518545,2.08723988 46.9956485,3.50324328 47.07,5 L47.07,10.82 C27.7913082,12.7574152 12.542702,28.0018402 10.6,47.28 L4.76,47.28 C2.51772392,47.28 0.7,49.0977239 0.7,51.34 C0.7,53.5822761 2.51772392,55.4 4.76,55.4 L10.6,55.4 C12.5345115,74.6838256 27.7861744,89.9354885 47.07,91.87 L47.07,97.69 C47.0710857,98.7694183 47.4988345,99.8046424 48.26,100.57 C49.4233312,101.724585 51.1667947,102.066441 52.6800002,101.436667 C54.1932057,100.806894 55.1793275,99.3290256 55.18,97.69 L55.18,91.87 C74.4638256,89.9354885 89.7154885,74.6838256 91.65,55.4 L97.47,55.4 C99.5965123,55.2504717 101.245219,53.481763 101.245219,51.35 C101.245219,49.218237 99.5965123,47.4495283 97.47,47.3 Z M55.18,86.62 L55.18,76 C55.1835574,74.9255323 54.7546912,73.8948118 53.99,73.14 C52.8292563,71.9879375 51.0906053,71.6447807 49.5791907,72.2694405 C48.0677761,72.8941003 47.0787044,74.3646107 47.07,76 L47.07,86.65 C30.6865664,84.7572203 17.7627797,71.8334336 15.87,55.45 L26.5,55.45 C28.7422761,55.45 30.56,53.6322761 30.56,51.39 C30.56,49.1477239 28.7422761,47.33 26.5,47.33 L15.87,47.33 C17.7627797,30.9465664 30.6865664,18.0227797 47.07,16.13 L47.07,26.78 C47.1773634,28.941313 48.961022,30.6385676 51.125,30.6385676 C53.288978,30.6385676 55.0726366,28.941313 55.18,26.78 L55.18,16.1 C71.5634336,17.9927797 84.4872203,30.9165664 86.38,47.3 L75.74,47.3 C73.4977239,47.3 71.68,49.1177239 71.68,51.36 C71.68,53.6022761 73.4977239,55.42 75.74,55.42 L86.38,55.42 C84.4872203,71.8034336 71.5634336,84.7272203 55.18,86.62 Z" id="Shape" fill="#D6F1FB"></path>
            </g>
        </g>
    </g>
</svg>