<?xml version="1.0" encoding="UTF-8"?>
<svg width="64px" height="64px" viewBox="0 0 64 64" version="1.1" xmlns="http://www.w3.org/2000/svg" xmlns:xlink="http://www.w3.org/1999/xlink">
    <!-- Generator: Sketch 48.2 (47327) - http://www.bohemiancoding.com/sketch -->
    <title>Group 30</title>
    <desc>Created with Sketch.</desc>
    <defs></defs>
    <g id="Home-page" stroke="none" stroke-width="1" fill="none" fill-rule="evenodd" transform="translate(-1311.000000, -308.000000)">
        <g id="Group-30" transform="translate(1311.000000, 308.000000)">
            <rect id="Rectangle-13" fill="#C8E0FF" fill-rule="nonzero" x="0" y="0" width="64" height="64" rx="32"></rect>
            <g id="Group-28" transform="translate(17.000000, 20.000000)">
                <rect id="Rectangle" fill="#478AEB" x="0" y="0" width="25" height="25" rx="3"></rect>
                <polygon id="Shape" fill="#3077D3" fill-rule="nonzero" points="21 12 21 14 6 14 6 12"></polygon>
                <polygon id="Shape" fill="#2A6DC4" fill-rule="nonzero" points="21 8 21 10 6 10 6 8"></polygon>
                <path d="M20,17 C19.0085301,17.6551882 18.0559413,18.3051557 17.072803,18.9264099 C16.9628479,18.9787869 16.8404975,19.0039425 16.717318,18.9994986 C13.2420816,18.9994986 9.7668452,18.9994986 6.29160881,18.9994986 C6.20273755,18.9994986 6.1138663,18.9994986 6,18.9786161 L6,17 L20,17 Z" id="Shape" fill="#3374D1" fill-rule="nonzero"></path>
                <g id="Group-16" transform="translate(19.000000, 7.000000)" fill="#549EFF" fill-rule="nonzero">
                    <path d="M7.37916033,2.8 L11.2,6.6054032 C11.1406896,6.67122978 11.0720144,6.74646016 11.0033391,6.81542134 C9.13037851,8.69618075 7.24909362,10.5769402 5.35948447,12.4576996 C5.21566941,12.6010434 5.04030215,12.70842 4.8475419,12.7711595 C3.51461825,13.1786573 2.17545141,13.5704822 0.833162966,13.9560379 C0.679629748,14.0043939 0.516419573,14.0130197 0.358679609,13.9811147 C0.230833714,13.9434007 0.123295681,13.855952 0.0599828327,13.7382178 C-0.00333001612,13.6204835 -0.0171679506,13.4822261 0.0215466969,13.3541949 C0.437760168,11.891382 0.861257375,10.4400627 1.29203832,9.00023685 C1.32923922,8.89401098 1.39133629,8.79832733 1.47309118,8.72125754 C3.42097022,6.75063963 5.36884927,4.79047037 7.31672831,2.84074979 C7.33466561,2.82317318 7.35588186,2.80932519 7.37916033,2.8 Z M4.47919297,11.7398764 C4.36681534,11.141168 4.2606809,10.5675364 4.14518166,10.0001739 C4.12687285,9.92501006 4.07503314,9.86254338 4.00470962,9.83090559 C3.43345663,9.70238703 2.85596044,9.58640687 2.26909944,9.46729211 C2.05683057,10.1945191 1.87265611,10.8966693 1.64477923,11.5831464 C1.56420996,11.8333723 1.64772656,12.1074961 1.8539265,12.2696236 C2.00041605,12.432467 2.24139749,12.4679756 2.42830109,12.3542578 L4.47919297,11.7398764 Z" id="Shape"></path>
                    <path d="M12.1224803,5.6 L8.4,1.9617741 C8.95064371,1.38144358 9.46586589,0.775604038 10.0519311,0.252668852 C10.521369,-0.112443398 11.1909252,-0.0784082626 11.6201386,0.332384581 C12.3221289,0.989242194 13.0080184,1.66523158 13.6681468,2.36354137 C14.1106177,2.84900264 14.1106177,3.58718535 13.6681468,4.07264662 C13.6002904,4.15281868 13.5282771,4.22944888 13.4523975,4.30222792 L12.1224803,5.6 Z" id="Shape"></path>
                </g>
            </g>
        </g>
    </g>
</svg>