<?xml version="1.0" encoding="UTF-8"?>
<svg width="314px" height="294px" viewBox="0 0 314 294" version="1.1" xmlns="http://www.w3.org/2000/svg" xmlns:xlink="http://www.w3.org/1999/xlink">
    <!-- Generator: Sketch 48.2 (47327) - http://www.bohemiancoding.com/sketch -->
    <title>Scanning</title>
    <desc>Created with Sketch.</desc>
    <defs>
        <linearGradient x1="100%" y1="50%" x2="0%" y2="50%" id="linearGradient-1">
            <stop stop-color="#20B6F9" offset="0%"></stop>
            <stop stop-color="#2772FF" offset="100%"></stop>
        </linearGradient>
        <path d="M9.05874627,1.21846154 L0.997641791,9.32843077 C-0.0260895522,10.3569231 0.0136119403,12.0018462 1.08385075,12.9838154 L25.0544776,34.9632 C26.0895522,35.9124923 27.7462388,35.8748308 28.7365075,34.8795692 L36.7981791,26.7696 C37.8207761,25.7405538 37.7816418,24.0956308 36.711403,23.1142154 L12.7407761,1.13483077 C12.2388358,0.675138462 11.5917015,0.4464 10.9445672,0.4464 C10.256597,0.4464 9.56919403,0.705046154 9.05874627,1.21846154" id="path-2"></path>
        <polygon id="path-4" points="0.459784884 0.374611336 28.9718992 0.374611336 28.9718992 28.4939271 0.459784884 28.4939271"></polygon>
        <polygon id="path-6" points="0 0.151408907 90.8569081 0.151408907 90.8569081 88.9819323 0 88.9819323"></polygon>
        <path d="M14.4751286,0.917057143 C4.28387143,3.64037143 -1.7706,14.1096429 0.952714286,24.3014571 C3.67547143,34.4932714 14.1453,40.5471857 24.3365571,37.8238714 C34.5283714,35.1011143 40.5822857,24.6312857 37.8600857,14.4400286 C35.5780286,5.89958571 27.8571429,0.264642857 19.4175429,0.264642857 C17.7856714,0.264642857 16.1270571,0.4758 14.4751286,0.917057143" id="path-8"></path>
    </defs>
    <g id="Home-page" stroke="none" stroke-width="1" fill="none" fill-rule="evenodd" transform="translate(-578.000000, -1534.000000)">
        <g id="Scanning" transform="translate(578.000000, 1534.000000)">
            <path d="M304.977011,1.58738271e-15 C309.96027,2.49398454e-15 314,4.00085968 314,8.93617021 L314,285.06383 C314,289.99914 309.96027,294 304.977011,294 L9.02298851,294 C4.03972956,294 0,289.99914 0,285.06383 L0,8.93617021 C0,4.00085968 4.03972956,6.80780871e-16 9.02298851,1.58738271e-15 L304.977011,1.58738271e-15 Z" id="Rectangle-13" fill="url(#linearGradient-1)"></path>
            <g id="Page-1" transform="translate(152.000000, 129.000000)">
                <path d="M96.2630128,101.210911 L104.263545,92.9177313 C105.278315,91.8654381 105.23948,90.1833549 104.177433,89.1797686 L80.3902726,66.7038518 C79.3625575,65.7331142 77.7185509,65.7710602 76.7369872,66.7893719 L68.7364553,75.0819855 C67.721685,76.1342787 67.7605198,77.8163619 68.8225672,78.8205146 L92.6097274,101.295865 C93.6368797,102.267169 95.2808863,102.228657 96.2630128,101.210911" id="Fill-1" fill="#E3F2F9"></path>
                <g id="Group-5" transform="translate(70.000000, 67.000000)">
                    <mask id="mask-3" fill="white">
                        <use xlink:href="#path-2"></use>
                    </mask>
                    <g id="Clip-4"></g>
                    <path d="M-45.4392657,2.664 C-58.5214746,-9.3312 -59.0041313,-29.2386462 -46.5168776,-41.7998769 C-34.030191,-54.3616615 -13.3020418,-54.8202462 -0.219832836,-42.8244923 C12.8629433,-30.8287385 13.3450328,-10.9212923 0.858346269,1.63993846 C-11.6289075,14.2011692 -32.3570567,14.6597538 -45.4392657,2.664 M-54.4832657,11.7614769 C-36.1678328,28.5557538 -7.14887761,27.9132923 10.333391,10.3281231 C27.8150925,-7.25815385 27.1396,-35.1282462 8.82416716,-51.9219692 C-9.49126567,-68.7156923 -38.5102209,-68.0737846 -55.9924896,-50.4880615 C-73.474191,-32.9023385 -72.7986985,-5.03224615 -54.4832657,11.7614769" id="Fill-3" fill="#C8F1FC" mask="url(#mask-3)"></path>
                </g>
                <g id="Group-24">
                    <polygon id="Fill-6" fill="#E3F2F9" points="116.235203 127.513117 133.45311 109.880964 112.790048 90.5928097 95.5721415 108.225522"></polygon>
                    <g id="Group-10" transform="translate(115.775194, 109.506073)">
                        <mask id="mask-5" fill="white">
                            <use xlink:href="#path-4"></use>
                        </mask>
                        <g id="Clip-9"></g>
                        <path d="M28.0350756,10.0424332 C29.2304826,11.158166 29.2900562,13.0119474 28.1671492,14.1617611 L15.0317229,27.6131296 C13.9093779,28.7629433 12.0125756,28.7908785 10.8166066,27.674587 L0.459784884,18.0073239 L17.6782539,0.374611336 L28.0350756,10.0424332 Z" id="Fill-8" fill="#E6FAFF" mask="url(#mask-5)"></path>
                    </g>
                    <path d="M85.2845601,94.6263765 L98.4199864,81.1750081 C99.5423314,80.0251943 101.423397,79.9827328 102.599696,81.080587 L112.790161,90.5930891 L95.5722539,108.225243 L85.3817888,98.7132996 C84.2054903,97.6154453 84.1616531,95.7761903 85.2845601,94.6263765" id="Fill-11" fill="#E6FAFF"></path>
                    <polygon id="Fill-13" fill="#A7D3FF" points="95.9514457 108.579517 113.169915 90.9473636 112.790554 90.5925862 95.5720853 108.225299"></polygon>
                    <polygon id="Fill-15" fill="#A7D3FF" points="116.341874 127.61279 133.559781 109.980078 133.180421 109.626418 115.962514 127.258572"></polygon>
                    <g id="Group-19">
                        <mask id="mask-7" fill="white">
                            <use xlink:href="#path-6"></use>
                        </mask>
                        <g id="Clip-18"></g>
                        <path d="M9.84572481,54.017949 C4.59481395,34.4817304 16.269,14.4130664 35.9209961,9.19364939 C55.5729922,3.97367368 75.7605891,15.5790826 81.0115,35.1153012 C86.2618488,54.6509611 74.5876628,74.7196251 54.9356667,79.9396008 C35.2842326,85.1595765 15.0966357,73.5541676 9.84572481,54.017949 M14.0619651,76.6879409 C32.2111318,93.6289773 60.966655,92.9814389 78.2902209,75.2414551 C95.6132248,57.5009126 94.9438643,29.3863457 76.7946977,12.4453093 C58.645531,-4.49572713 29.8900078,-3.84818866 12.5670039,13.8917951 C-4.75656202,31.6317789 -4.08720155,59.7463457 14.0619651,76.6879409" id="Fill-17" fill="#D6F1FB" mask="url(#mask-7)"></path>
                    </g>
                    <path d="M20.6386143,69.9528704 C34.9593314,83.3204332 57.7310756,82.8075425 71.3998547,68.8097611 C85.0691957,54.8114211 84.5392151,32.5476073 70.217936,19.1800445 C55.897219,5.81248178 33.1260368,6.32537247 19.4566957,20.3231538 C5.78791667,34.3214939 6.31789729,56.5853077 20.6386143,69.9528704 M19.4106105,71.2105142 C4.38062984,57.1803279 3.82367248,33.8141903 18.1702422,19.122498 C32.516812,4.43136437 56.4159593,3.89277328 71.4465019,17.9224008 C86.4764826,31.952587 87.0328779,55.3192834 72.6863081,70.010417 C58.3403004,84.7021093 34.4405911,85.2401417 19.4106105,71.2105142" id="Fill-20" fill="#E3F2F9"></path>
                    <path d="M50.402281,63.0719223 C60.6832306,60.3409749 66.7906531,49.8423595 64.0435213,39.6219789 C61.2963895,29.4021571 50.7355562,23.3307158 40.4546066,26.0611045 C30.174219,28.7920518 24.0667965,39.2906672 26.8133663,49.5110478 C29.5604981,59.7314283 40.1213314,65.8028696 50.402281,63.0719223" id="Fill-22" fill="#D6F1FB"></path>
                </g>
                <g id="Group-27" transform="translate(26.000000, 26.000000)">
                    <mask id="mask-9" fill="white">
                        <use xlink:href="#path-8"></use>
                    </mask>
                    <g id="Clip-26"></g>
                    <path d="M24.3367243,37.8242057 C34.5285386,35.1008914 40.58301,24.63162 37.8596957,14.4398057 C35.1363814,4.24854857 24.66711,-1.80592286 14.4752957,0.916834286 C4.28403857,3.64014857 -1.77043286,14.10942 0.952324286,24.3012343 C3.67563857,34.4930486 14.14491,40.54752 24.3367243,37.8242057" id="Fill-25" fill="#D6F1FB" mask="url(#mask-9)"></path>
                </g>
                <g id="Group-68" transform="translate(0.000000, 14.000000)">
                    <path d="M79.8556996,63.158227 C77.958622,65.0673802 75.9252343,66.7693081 73.788769,68.2746234 L86.2301731,79.8591279 L91.7867853,74.1830559 L79.8556996,63.158227 Z" id="Fill-28" fill="#F8FDFF"></path>
                    <polygon id="Fill-30" fill="#ADADAD" points="72.0652335 66.6697171 72.0652335 66.6697171 73.7888253 68.2744559 73.7888253 68.2744559"></polygon>
                    <path d="M78.1367265,61.5697982 C76.2368327,63.4722486 74.2034449,65.1702667 72.0652898,66.6694378 L73.7888816,68.2747351 C75.9253469,66.7694198 77.9587347,65.0674919 79.8558122,63.1583387 L78.1367265,61.5697982 Z" id="Fill-32" fill="#EEFAFF"></path>
                    <polygon id="Fill-34" fill="#F8FDFF" points="124.698377 104.594559 104.569528 85.9951171 96.1588506 94.5868649 116.301218 113.342144 116.213912 113.261712"></polygon>
                    <path d="M116.594285,113.615503 L126.867118,123.180818 C128.065746,124.296818 129.966203,124.26889 131.091607,123.119377 L137.577044,116.494872 L125.079877,104.947232 L116.594285,113.615503 Z" id="Fill-36" fill="#FFFFFF"></path>
                    <path d="M98.3771584,87.6809027 L102.184832,83.7911009 L100.467436,82.2047946 L96.6659584,86.0878937 C95.6836237,87.0916234 94.0383257,87.1296054 93.0098033,86.1716775 L86.230342,79.8588486 L94.7210033,87.765245 C95.7489624,88.7226144 97.3942604,88.6846324 98.3771584,87.6809027" id="Fill-38" fill="#FFFFFF"></path>
                    <path d="M102.184832,83.7912126 L98.3771584,87.6810144 C97.3942604,88.6847441 95.7489624,88.7227261 94.7210033,87.7647982 L86.230342,79.8589604 L85.4676808,80.637591 C84.3422767,81.7871045 84.3862114,83.6258793 85.5651257,84.7234468 L95.7782522,94.2329063 L104.188367,85.6422757 L102.184832,83.7912126 Z" id="Fill-40" fill="#FFFFFF"></path>
                    <path d="M86.2300604,79.8590162 L93.0095216,86.171845 C94.0380441,87.1292144 95.683342,87.091791 96.66624,86.0880613 L100.467718,82.2044036 L91.7866727,74.1829441 L86.2300604,79.8590162 Z" id="Fill-42" fill="#FFFFFF"></path>
                    <polygon id="Fill-44" fill="#848484" points="96.1584563 94.5872 96.1584563 94.5872 95.7782522 94.2330739"></polygon>
                    <polygon id="Fill-46" fill="#D6EEFB" points="104.188141 85.6423315 95.7785902 94.2329622 96.1587943 94.5870883 104.569472 85.994782"></polygon>
                    <polygon id="Fill-48" fill="#848484" points="116.300993 113.342256 116.594454 113.615391 116.594454 113.615391 116.487433 113.515968"></polygon>
                    <polygon id="Fill-50" fill="#D6EEFB" points="124.972575 104.847977 124.698264 104.594391 116.214362 113.261544 116.301105 113.342535 116.487546 113.515688"></polygon>
                    <polygon id="Fill-52" fill="#D6EEFB" points="124.972575 104.847977 116.487546 113.515688 116.594003 113.61567 125.080158 104.9474"></polygon>
                    <path d="M70.9146514,65.5983459 L69.2040147,64.0053369 C68.1411331,63.0155712 68.1022678,61.3566523 69.1183984,60.3188505 L72.7582188,56.6005261 L72.4991167,56.3609045 C58.0862841,70.7158595 34.3936555,71.1448324 19.4474106,57.2277874 C4.57101061,43.3760937 3.85284735,20.4260396 17.68608,5.71081441 L12.0500473,0.503372973 C-4.74483429,18.2660937 -3.90782204,45.9482559 14.0868147,62.7038955 C30.1916963,77.6995171 54.6244555,78.8993009 72.0654024,66.6696613 L70.9146514,65.5989045 C70.9146514,65.5983459 70.9146514,65.5983459 70.9146514,65.5983459" id="Fill-54" fill="#FFFFFF"></path>
                    <path d="M70.8291478,61.9119712 L74.4757273,58.1869441 L72.7583314,56.6000793 L69.1179478,60.3189622 C68.1023804,61.356764 68.1412457,63.0156829 69.2041273,64.0054486 L70.9147641,65.5984577 C69.8518824,64.6081333 69.8130171,62.9492144 70.8291478,61.9119712" id="Fill-56" fill="#FFFFFF"></path>
                    <path d="M70.9146514,65.5983459 C70.9146514,65.5983459 70.9146514,65.5983459 70.9146514,65.5989045 L72.0654024,66.6696613 L70.9146514,65.5983459 Z" id="Fill-58" fill="#535353"></path>
                    <path d="M74.4756147,58.1868324 L70.8290351,61.9118595 C69.8129045,62.9496613 69.8523331,64.6080216 70.9146514,65.5983459 L72.0654024,66.6696613 C74.2035576,65.1704901 76.2369453,63.4724721 78.1368392,61.5700216 L74.4756147,58.1868324 Z" id="Fill-60" fill="#FFFFFF"></path>
                    <path d="M9.86131102,40.0398793 C15.1238988,59.5709964 35.3563886,71.1733748 55.0515233,65.9547622 C61.7926824,64.1690505 67.5954416,60.6423117 72.1038171,55.9951045 L71.205409,55.1650865 C57.4707478,68.8218432 34.9119722,69.2240054 20.678258,55.9705279 C6.51157224,42.779609 5.82044571,20.9282396 18.9800131,6.90674414 L18.1013192,6.09515856 C10.03536,14.9913207 6.51495184,27.6203297 9.86131102,40.0398793" id="Fill-62" fill="#E3F2F9"></path>
                    <path d="M55.0518049,65.9548739 C35.3561069,71.1734865 15.1236171,59.5711081 9.86159265,40.039991 C6.5146702,27.6198829 10.0350784,14.9914324 18.1016008,6.09471171 L17.685911,5.71098198 C3.85267837,20.4262072 4.57084163,43.3757027 19.4472416,57.227955 C34.3940498,71.145 58.0861151,70.7154685 72.499511,56.3605135 L72.1035355,55.9952162 C67.5957233,60.6424234 61.7929641,64.1686036 55.0518049,65.9548739" id="Fill-64" fill="#D6EEFB"></path>
                    <path d="M26.8667976,35.534155 C29.6200384,45.7518667 40.2043567,51.8217225 50.508169,49.0914883 C53.9322588,48.1843892 56.8905282,46.4159928 59.2185037,44.0884793 L30.9775078,17.993182 C26.8977771,22.634245 25.143769,29.1386595 26.8667976,35.534155" id="Fill-66" fill="#FFFFFF"></path>
                </g>
            </g>
            <g id="noun_1215971_cc" transform="translate(145.000000, 127.000000)" fill="#FFFFFF" fill-rule="nonzero">
                <path d="M11.6796339,8.48863968 C14.3646072,8.48863968 13.8764302,7.8953649 13.8764302,12.4438049 C13.8764302,13.1853984 12.8024409,13.1853984 12.8024409,12.4438049 L12.8024409,9.57631012 L10.8009153,9.57631012 C10.215103,10.1201453 9.48283753,10.4662223 8.70175439,10.614541 L8.70175439,6.11554056 C8.70175439,5.42338664 7.62776506,5.42338664 7.62776506,6.11554056 L7.62776506,10.614541 C6.79786423,10.4662223 6.06559878,10.1201453 5.47978642,9.57631012 L3.52707857,9.57631012 L3.52707857,12.4438049 C3.52707857,13.1853984 2.45308924,13.1853984 2.45308924,12.4438049 C2.45308924,7.8953649 1.96491228,8.48863968 4.64988558,8.48863968 C4.50343249,8.24144186 4.4057971,7.8953649 4.30816171,7.59872751 L0.549199085,7.59872751 C-0.183066362,7.59872751 -0.183066362,6.51105708 0.549199085,6.51105708 L4.21052632,6.51105708 C4.21052632,6.16498012 4.25934401,5.7694636 4.35697941,5.47282621 C2.01372998,5.47282621 2.45308924,6.01666143 2.45308924,1.46822143 C2.45308924,0.776067523 3.52707857,0.776067523 3.52707857,1.46822143 L3.52707857,4.33571621 L4.89397407,4.33571621 C5.38215103,3.59412274 6.06559878,3.09972708 6.79786423,2.85252926 L4.94279176,0.973825783 C4.4546148,0.429990567 5.23569794,-0.361042475 5.7726926,0.182792741 L8.01830664,2.40757317 L10.215103,0.182792741 C10.7520976,-0.361042475 11.5819985,0.429990567 11.0450038,0.973825783 L9.28756674,2.75365013 C10.1174676,3.00084795 10.8985507,3.54468317 11.4355454,4.33571621 L12.8024409,4.33571621 L12.8024409,1.46822143 C12.8024409,0.776067523 13.8764302,0.776067523 13.8764302,1.46822143 C13.8764302,6.01666143 14.3157895,5.47282621 11.97254,5.47282621 C12.0701754,5.7694636 12.1189931,6.16498012 12.1189931,6.51105708 L15.4874142,6.51105708 C16.1708619,6.51105708 16.1708619,7.59872751 15.4874142,7.59872751 L12.0213577,7.59872751 C11.9237223,7.8953649 11.826087,8.24144186 11.6796339,8.48863968 Z" id="Shape"></path>
            </g>
            <g id="noun_1215971_cc-copy-2" transform="translate(176.000000, 63.000000)" fill="#FFFFFF" fill-rule="nonzero">
                <path d="M11.6796339,8.48863968 C14.3646072,8.48863968 13.8764302,7.8953649 13.8764302,12.4438049 C13.8764302,13.1853984 12.8024409,13.1853984 12.8024409,12.4438049 L12.8024409,9.57631012 L10.8009153,9.57631012 C10.215103,10.1201453 9.48283753,10.4662223 8.70175439,10.614541 L8.70175439,6.11554056 C8.70175439,5.42338664 7.62776506,5.42338664 7.62776506,6.11554056 L7.62776506,10.614541 C6.79786423,10.4662223 6.06559878,10.1201453 5.47978642,9.57631012 L3.52707857,9.57631012 L3.52707857,12.4438049 C3.52707857,13.1853984 2.45308924,13.1853984 2.45308924,12.4438049 C2.45308924,7.8953649 1.96491228,8.48863968 4.64988558,8.48863968 C4.50343249,8.24144186 4.4057971,7.8953649 4.30816171,7.59872751 L0.549199085,7.59872751 C-0.183066362,7.59872751 -0.183066362,6.51105708 0.549199085,6.51105708 L4.21052632,6.51105708 C4.21052632,6.16498012 4.25934401,5.7694636 4.35697941,5.47282621 C2.01372998,5.47282621 2.45308924,6.01666143 2.45308924,1.46822143 C2.45308924,0.776067523 3.52707857,0.776067523 3.52707857,1.46822143 L3.52707857,4.33571621 L4.89397407,4.33571621 C5.38215103,3.59412274 6.06559878,3.09972708 6.79786423,2.85252926 L4.94279176,0.973825783 C4.4546148,0.429990567 5.23569794,-0.361042475 5.7726926,0.182792741 L8.01830664,2.40757317 L10.215103,0.182792741 C10.7520976,-0.361042475 11.5819985,0.429990567 11.0450038,0.973825783 L9.28756674,2.75365013 C10.1174676,3.00084795 10.8985507,3.54468317 11.4355454,4.33571621 L12.8024409,4.33571621 L12.8024409,1.46822143 C12.8024409,0.776067523 13.8764302,0.776067523 13.8764302,1.46822143 C13.8764302,6.01666143 14.3157895,5.47282621 11.97254,5.47282621 C12.0701754,5.7694636 12.1189931,6.16498012 12.1189931,6.51105708 L15.4874142,6.51105708 C16.1708619,6.51105708 16.1708619,7.59872751 15.4874142,7.59872751 L12.0213577,7.59872751 C11.9237223,7.8953649 11.826087,8.24144186 11.6796339,8.48863968 Z" id="Shape"></path>
            </g>
            <text id="1001000" font-family="JosefinSans-Regular, Josefin Sans" font-size="18" font-weight="normal" fill="#8ABBFB">
                <tspan x="76" y="140">1001000</tspan>
            </text>
            <text id="10100-copy" font-family="JosefinSans-Regular, Josefin Sans" font-size="18" font-weight="normal" fill="#8ABBFB">
                <tspan x="128" y="75">10100</tspan>
            </text>
            <text id="10100100010010100010" font-family="JosefinSans-Regular, Josefin Sans" font-size="18" font-weight="normal" fill="#8ABBFB">
                <tspan x="57" y="118">101001000100101000100</tspan>
            </text>
            <text id="1010001010010100" font-family="JosefinSans-Regular, Josefin Sans" font-size="18" font-weight="normal" fill="#8ABBFB">
                <tspan x="129" y="97">1010001010010100</tspan>
            </text>
            <text id="10100" font-family="JosefinSans-Regular, Josefin Sans" font-size="18" font-weight="normal" fill="#8ABBFB">
                <tspan x="97" y="162">10100</tspan>
            </text>
            <text id="100" font-family="JosefinSans-Regular, Josefin Sans" font-size="18" font-weight="normal" fill="#8ABBFB">
                <tspan x="114.596" y="183">100</tspan>
            </text>
            <text id="1010" font-family="JosefinSans-Regular, Josefin Sans" font-size="18" font-weight="normal" fill="#8ABBFB">
                <tspan x="74" y="97">1010</tspan>
            </text>
            <g id="noun_1215971_cc-copy" transform="translate(111.000000, 85.000000)" fill="#FFFFFF" fill-rule="nonzero">
                <path d="M11.6796339,8.48863968 C14.3646072,8.48863968 13.8764302,7.8953649 13.8764302,12.4438049 C13.8764302,13.1853984 12.8024409,13.1853984 12.8024409,12.4438049 L12.8024409,9.57631012 L10.8009153,9.57631012 C10.215103,10.1201453 9.48283753,10.4662223 8.70175439,10.614541 L8.70175439,6.11554056 C8.70175439,5.42338664 7.62776506,5.42338664 7.62776506,6.11554056 L7.62776506,10.614541 C6.79786423,10.4662223 6.06559878,10.1201453 5.47978642,9.57631012 L3.52707857,9.57631012 L3.52707857,12.4438049 C3.52707857,13.1853984 2.45308924,13.1853984 2.45308924,12.4438049 C2.45308924,7.8953649 1.96491228,8.48863968 4.64988558,8.48863968 C4.50343249,8.24144186 4.4057971,7.8953649 4.30816171,7.59872751 L0.549199085,7.59872751 C-0.183066362,7.59872751 -0.183066362,6.51105708 0.549199085,6.51105708 L4.21052632,6.51105708 C4.21052632,6.16498012 4.25934401,5.7694636 4.35697941,5.47282621 C2.01372998,5.47282621 2.45308924,6.01666143 2.45308924,1.46822143 C2.45308924,0.776067523 3.52707857,0.776067523 3.52707857,1.46822143 L3.52707857,4.33571621 L4.89397407,4.33571621 C5.38215103,3.59412274 6.06559878,3.09972708 6.79786423,2.85252926 L4.94279176,0.973825783 C4.4546148,0.429990567 5.23569794,-0.361042475 5.7726926,0.182792741 L8.01830664,2.40757317 L10.215103,0.182792741 C10.7520976,-0.361042475 11.5819985,0.429990567 11.0450038,0.973825783 L9.28756674,2.75365013 C10.1174676,3.00084795 10.8985507,3.54468317 11.4355454,4.33571621 L12.8024409,4.33571621 L12.8024409,1.46822143 C12.8024409,0.776067523 13.8764302,0.776067523 13.8764302,1.46822143 C13.8764302,6.01666143 14.3157895,5.47282621 11.97254,5.47282621 C12.0701754,5.7694636 12.1189931,6.16498012 12.1189931,6.51105708 L15.4874142,6.51105708 C16.1708619,6.51105708 16.1708619,7.59872751 15.4874142,7.59872751 L12.0213577,7.59872751 C11.9237223,7.8953649 11.826087,8.24144186 11.6796339,8.48863968 Z" id="Shape"></path>
            </g>
        </g>
    </g>
</svg>