<?xml version="1.0" encoding="UTF-8"?>
<svg width="364px" height="344px" viewBox="0 0 364 344" version="1.1" xmlns="http://www.w3.org/2000/svg" xmlns:xlink="http://www.w3.org/1999/xlink">
    <!-- Generator: Sketch 48.2 (47327) - http://www.bohemiancoding.com/sketch -->
    <title>monitoring</title>
    <desc>Created with Sketch.</desc>
    <defs>
        <path d="M298.967742,0 C303.95612,9.07406275e-16 308,4.00440969 308,8.94409938 L308,279.055901 C308,283.99559 303.95612,288 298.967742,288 L9.03225806,288 C4.04387968,288 0,283.99559 0,279.055901 L0,8.94409938 C0,4.00440969 4.04387968,-9.07406275e-16 9.03225806,0 L298.967742,0 Z" id="path-1"></path>
        <filter x="-13.8%" y="-14.4%" width="127.6%" height="129.5%" filterUnits="objectBoundingBox" id="filter-2">
            <feOffset dx="0" dy="1" in="SourceAlpha" result="shadowOffsetOuter1"></feOffset>
            <feGaussianBlur stdDeviation="14" in="shadowOffsetOuter1" result="shadowBlurOuter1"></feGaussianBlur>
            <feColorMatrix values="0 0 0 0 0.839604592   0 0 0 0 0.839604592   0 0 0 0 0.839604592  0 0 0 0.5 0" type="matrix" in="shadowBlurOuter1"></feColorMatrix>
        </filter>
    </defs>
    <g id="Home-page" stroke="none" stroke-width="1" fill="none" fill-rule="evenodd" transform="translate(-298.000000, -1399.000000)">
        <g id="monitoring" transform="translate(326.000000, 1426.000000)">
            <g id="Rectangle-13-Copy-2">
                <use fill="black" fill-opacity="1" filter="url(#filter-2)" xlink:href="#path-1"></use>
                <use fill="#FFFFFF" fill-rule="evenodd" xlink:href="#path-1"></use>
            </g>
            <g id="Group-20" transform="translate(24.000000, 71.000000)">
                <g id="Group-11" opacity="0.149999991">
                    <path d="M223.5,4.5 L189.5,42.5" id="Line-8" stroke="#549EFF" stroke-width="2" stroke-linecap="square"></path>
                    <path d="M189.5,43.5 L154.5,26.5" id="Line-7" stroke="#549EFF" stroke-width="2" stroke-linecap="square"></path>
                    <path d="M120.5,49.5 L87.5,35.5" id="Line-5" stroke="#549EFF" stroke-width="2" stroke-linecap="square"></path>
                    <rect id="Rectangle-15" fill="#549EFF" x="42" y="74" width="21" height="66"></rect>
                    <rect id="Rectangle-15-Copy" fill="#549EFF" x="76" y="53" width="21" height="87"></rect>
                    <rect id="Rectangle-15-Copy-2" fill="#549EFF" x="110" y="64" width="21" height="76"></rect>
                    <rect id="Rectangle-15-Copy-3" fill="#549EFF" x="144" y="39" width="21" height="101"></rect>
                    <rect id="Rectangle-15-Copy-4" fill="#549EFF" x="178" y="57" width="21" height="83"></rect>
                    <rect id="Rectangle-15-Copy-5" fill="#549EFF" x="212" y="20" width="21" height="120"></rect>
                    <rect id="Rectangle-16" fill="#549EFF" transform="translate(118.000000, 151.500000) scale(1, -1) translate(-118.000000, -151.500000) " x="0" y="150" width="236" height="3"></rect>
                    <circle id="Oval-5" fill="#549EFF" cx="87" cy="35" r="4"></circle>
                    <circle id="Oval-5-Copy" fill="#549EFF" cx="120" cy="49" r="4"></circle>
                    <circle id="Oval-5-Copy-2" fill="#549EFF" cx="155" cy="27" r="4"></circle>
                    <path d="M155.5,26.5 L119.5,49.5" id="Line-6" stroke="#549EFF" stroke-width="2" stroke-linecap="square"></path>
                    <circle id="Oval-5-Copy-3" fill="#549EFF" cx="189" cy="43" r="4"></circle>
                    <circle id="Oval-5-Copy-4" fill="#549EFF" cx="223" cy="4" r="4"></circle>
                    <path d="M86.5,34.5 L25.5,63.5" id="Line-4" stroke="#549EFF" stroke-width="2" stroke-linecap="square"></path>
                </g>
                <g id="Group-11-Copy" transform="translate(4.000000, 3.000000)">
                    <path d="M223.5,4.5 L189.5,42.5" id="Line-8" stroke="#549EFF" stroke-width="2" stroke-linecap="square"></path>
                    <path d="M189.5,43.5 L154.5,26.5" id="Line-7" stroke="#549EFF" stroke-width="2" stroke-linecap="square"></path>
                    <path d="M120.5,49.5 L87.5,35.5" id="Line-5" stroke="#549EFF" stroke-width="2" stroke-linecap="square"></path>
                    <rect id="Rectangle-15" fill="#549EFF" x="42" y="74" width="21" height="66"></rect>
                    <rect id="Rectangle-15-Copy" fill="#549EFF" x="76" y="53" width="21" height="87"></rect>
                    <rect id="Rectangle-15-Copy-2" fill="#549EFF" x="110" y="64" width="21" height="76"></rect>
                    <rect id="Rectangle-15-Copy-3" fill="#549EFF" x="144" y="39" width="21" height="101"></rect>
                    <rect id="Rectangle-15-Copy-4" fill="#549EFF" x="178" y="57" width="21" height="83"></rect>
                    <rect id="Rectangle-15-Copy-5" fill="#549EFF" x="212" y="20" width="21" height="120"></rect>
                    <rect id="Rectangle-16" fill="#549EFF" transform="translate(118.000000, 151.500000) scale(1, -1) translate(-118.000000, -151.500000) " x="0" y="150" width="236" height="3"></rect>
                    <circle id="Oval-5" fill="#549EFF" cx="87" cy="35" r="4"></circle>
                    <circle id="Oval-5-Copy" fill="#549EFF" cx="120" cy="49" r="4"></circle>
                    <circle id="Oval-5-Copy-2" fill="#549EFF" cx="155" cy="27" r="4"></circle>
                    <path d="M155.5,26.5 L119.5,49.5" id="Line-6" stroke="#549EFF" stroke-width="2" stroke-linecap="square"></path>
                    <circle id="Oval-5-Copy-3" fill="#549EFF" cx="189" cy="43" r="4"></circle>
                    <circle id="Oval-5-Copy-4" fill="#549EFF" cx="223" cy="4" r="4"></circle>
                    <path d="M86.5,34.5 L25.5,63.5" id="Line-4" stroke="#549EFF" stroke-width="2" stroke-linecap="square"></path>
                </g>
            </g>
        </g>
    </g>
</svg>