<?xml version="1.0" encoding="UTF-8"?>
<svg width="64px" height="64px" viewBox="0 0 64 64" version="1.1" xmlns="http://www.w3.org/2000/svg" xmlns:xlink="http://www.w3.org/1999/xlink">
    <!-- Generator: Sketch 48.2 (47327) - http://www.bohemiancoding.com/sketch -->
    <title>icon_about_us_d</title>
    <desc>Created with Sketch.</desc>
    <defs></defs>
    <g id="Home-page" stroke="none" stroke-width="1" fill="none" fill-rule="evenodd" transform="translate(-1311.000000, -130.000000)">
        <g id="icon_about_us_d" transform="translate(1311.000000, 130.000000)" fill-rule="nonzero">
            <rect id="Rectangle-13" fill="#C8E0FF" x="0" y="0" width="64" height="64" rx="32"></rect>
            <path d="M19,18 L36.8333333,18 C37.3856181,18 37.8333333,18.4477153 37.8333333,19 L37.8333333,46 L18,46 L18,19 C18,18.4477153 18.4477153,18 19,18 Z" id="Rectangle-23" fill="#2E7CED"></path>
            <rect id="Rectangle-25-Copy-2" fill="#478AEB" x="22" y="22" width="12" height="2"></rect>
            <rect id="Rectangle-25-Copy-7" fill="#659BE9" opacity="0.699999988" x="22" y="26" width="12" height="2"></rect>
            <rect id="Rectangle-25-Copy-8" fill="#6DA3F0" opacity="0.5" x="22" y="30" width="12" height="2"></rect>
            <rect id="Rectangle-25-Copy-9" fill="#F6E8FD" opacity="0.200000003" x="22" y="34" width="12" height="2"></rect>
            <path d="M35.3333333,29.6666667 L45,29.6666667 C45.5522847,29.6666667 46,30.1143819 46,30.6666667 L46,46 L34.3333333,46 L34.3333333,30.6666667 C34.3333333,30.1143819 34.7810486,29.6666667 35.3333333,29.6666667 Z" id="Rectangle-23" fill="#549EFF"></path>
            <rect id="Rectangle-25-Copy-6" fill="#2E7CED" x="36.6666667" y="34.1666667" width="7" height="1.16666667"></rect>
            <rect id="Rectangle-25-Copy-6" fill="#4785DD" opacity="0.699999988" x="36.6666667" y="37.8333333" width="7" height="1.16666667"></rect>
            <rect id="Rectangle-25-Copy-6" fill="#4482DD" opacity="0.400000006" x="36.6666667" y="41.5" width="7" height="1.16666667"></rect>
        </g>
    </g>
</svg>