<?xml version="1.0" encoding="UTF-8"?>
<svg width="84px" height="91px" viewBox="0 0 84 91" version="1.1" xmlns="http://www.w3.org/2000/svg" xmlns:xlink="http://www.w3.org/1999/xlink">
    <!-- Generator: Sketch 48.2 (47327) - http://www.bohemiancoding.com/sketch -->
    <title>protectiing</title>
    <desc>Created with Sketch.</desc>
    <defs></defs>
    <g id="Home-page" stroke="none" stroke-width="1" fill="none" fill-rule="evenodd" transform="translate(-1047.000000, -2380.000000)">
        <g id="protectiing" transform="translate(1089.000000, 2433.000000) rotate(1.000000) translate(-1089.000000, -2433.000000) translate(1034.000000, 2380.000000)" fill-rule="nonzero">
            <g id="Group-21" transform="translate(23.000000, 8.000000)">
                <g id="Group-18">
                    <path d="M47.6813023,36.4586526 C48.9713023,28.6686526 44.9813023,20.9186526 37.7513023,18.1886526 C30.5213023,15.4586526 22.4113023,18.6186526 18.2213023,25.3186526 C17.582113,26.3395611 17.0461372,27.4215623 16.6213023,28.5486526 C16.1575803,29.7636259 15.8224178,31.0238371 15.6213023,32.3086526 L15.3413023,34.2186526 L9.1113023,31.8586526 L9.3813023,30.6086526 C9.65671894,29.1325917 10.061617,27.6836591 10.5913023,26.2786526 C11.014814,25.1551647 11.5160256,24.0625234 12.0913023,23.0086526 C17.7013023,12.8186526 29.6113023,7.85865256 40.1813023,11.8586526 C50.7513023,15.8586526 56.4013023,27.4486526 53.8613023,38.8086526" id="Shape" fill="#478AEB" transform="translate(31.788104, 24.641672) rotate(-35.000000) translate(-31.788104, -24.641672) "></path>
                    <path d="M73.1723226,42.2042923 L29.1723226,25.5742923 C27.8404506,24.9565377 26.2590517,25.5162463 25.6123226,26.8342923 L11.5623226,64.0142923 C11.1756576,65.4316985 11.9932981,66.8981191 13.4023226,67.3142923 L57.4023226,83.9442923 C58.7341947,84.562047 60.3155935,84.0023384 60.9623226,82.6842923 L75.0223226,45.5042923 C75.4082061,44.0839182 74.5853778,42.6161705 73.1723226,42.2042923 Z" id="Shape" fill="#B1DAFD" transform="translate(43.291955, 54.759292) rotate(-35.000000) translate(-43.291955, -54.759292) "></path>
                    <path d="M51.3667568,51.2275654 C52.7323245,47.6247759 51.2324387,43.5666997 47.851995,41.7180603 C44.4715512,39.869421 40.2456046,40.7962517 37.9491103,43.8899519 C35.6526159,46.9836521 35.9887354,51.2969645 38.7367568,53.9975654 L35.8867568,61.5275654 C35.2852682,63.1318459 36.0946037,64.9204327 37.6967568,65.5275654 C39.3010374,66.129054 41.0896242,65.3197185 41.6967568,63.7175654 L44.5467568,56.1875654 C47.6020508,56.0315873 50.2770061,54.0861653 51.3667568,51.2275654 Z" id="Shape" fill="#103CDC" transform="translate(43.778518, 53.248556) rotate(-35.000000) translate(-43.778518, -53.248556) "></path>
                    <path d="M67.4454603,34.3063962 C66.4823935,34.0281987 65.4747541,34.5766042 65.1854603,35.5363962 L56.2354603,59.2063962 C55.901924,59.7892956 55.9428075,60.5139187 56.3397932,61.0556018 C56.7367789,61.5972849 57.4154514,61.8544888 58.0717348,61.7119746 C58.7280182,61.5694603 59.2388914,61.0539425 59.3754603,60.3963962 L68.3054603,36.6763962 C68.695502,35.7834256 68.3173954,34.7414342 67.4454603,34.3063962 Z" id="Shape" fill="#103CDC" opacity="0.5" transform="translate(62.234900, 47.992411) rotate(-35.000000) translate(-62.234900, -47.992411) "></path>
                </g>
            </g>
            <g id="Group-17" transform="translate(23.823666, 22.984608) scale(-1, 1) rotate(33.000000) translate(-23.823666, -22.984608) translate(5.323666, 7.984608)" fill="#B1DAFD">
                <rect id="Rectangle-path" transform="translate(2.807098, 7.569653) rotate(-2.230000) translate(-2.807098, -7.569653) " x="0.847097573" y="0.214653292" width="3.92" height="14.71" rx="0.74"></rect>
                <rect id="Rectangle-path" transform="translate(18.187011, 13.391329) rotate(32.720000) translate(-18.187011, -13.391329) " x="16.2270106" y="6.03632891" width="3.92" height="14.71" rx="0.74"></rect>
                <rect id="Rectangle-path" transform="translate(29.126509, 24.645000) rotate(68.670000) translate(-29.126509, -24.645000) " x="27.166509" y="17.29" width="3.92" height="14.71" rx="0.74"></rect>
            </g>
        </g>
    </g>
</svg>